<?xml version="1.0" standalone="no"?>
<!DOCTYPE svg PUBLIC "-//W3C//DTD SVG 20010904//EN"
 "http://www.w3.org/TR/2001/REC-SVG-20010904/DTD/svg10.dtd">
<svg version="1.0" xmlns="http://www.w3.org/2000/svg"
 width="1080.000000pt" height="1080.000000pt" viewBox="0 0 1080.000000 1080.000000"
 preserveAspectRatio="xMidYMid meet">

<g transform="translate(0.000000,1080.000000) scale(0.100000,-0.100000)"
fill="#000000" stroke="none">
<path d="M4293 10731 c-53 -44 -106 -98 -174 -177 -14 -16 -45 -59 -69 -94
-24 -36 -60 -85 -80 -110 -20 -25 -40 -54 -44 -65 -4 -11 -20 -38 -37 -60 -96
-131 -118 -164 -129 -199 -14 -43 -20 -385 -7 -393 13 -8 154 294 191 410 19
59 49 132 65 161 17 28 44 92 61 141 30 91 52 130 83 149 33 21 41 -30 13 -89
-21 -43 -30 -45 -21 -5 14 62 -14 21 -31 -45 -4 -15 -2 -25 4 -25 6 0 12 8 14
18 3 13 8 8 21 -17 17 -35 13 -55 -21 -93 -27 -32 4 -19 42 17 22 21 53 69 77
121 39 85 84 154 99 154 8 0 -52 -150 -90 -226 -12 -22 -38 -62 -60 -88 -29
-34 -40 -59 -45 -94 -14 -110 -27 -158 -61 -221 -20 -36 -65 -118 -99 -181
-34 -63 -71 -131 -83 -150 -58 -94 -63 -111 -72 -216 -9 -113 -22 -144 -90
-209 -22 -21 -27 -31 -18 -37 9 -5 5 -8 -10 -8 -12 0 -25 -7 -28 -15 -8 -19
-25 -9 -22 12 2 9 -2 18 -8 20 -15 5 -59 -66 -48 -76 5 -4 33 -17 62 -29 29
-12 101 -50 160 -85 59 -35 136 -78 172 -95 71 -34 129 -76 118 -87 -3 -3 -23
4 -45 18 -21 13 -99 54 -173 92 -74 37 -160 83 -191 101 -64 40 -121 46 -184
19 -37 -16 -150 -17 -1755 -11 -1045 4 -1720 4 -1728 -2 -11 -7 21 -63 140
-246 84 -130 182 -281 218 -336 204 -314 309 -477 317 -495 13 -25 30 -128 38
-220 6 -70 31 -149 45 -140 4 3 10 19 14 37 l7 33 38 -40 c30 -32 40 -53 50
-105 19 -94 19 -94 36 -80 12 10 18 7 32 -20 10 -18 29 -46 43 -63 18 -23 27
-48 32 -96 22 -219 34 -285 48 -276 5 3 5 18 1 33 -11 38 14 190 35 213 9 10
24 51 33 91 9 40 21 72 26 71 15 -3 33 -85 40 -189 7 -89 9 -97 36 -116 54
-40 59 -65 59 -305 0 -152 5 -236 14 -278 8 -33 19 -125 26 -205 6 -80 15
-185 20 -235 6 -49 11 -165 11 -257 1 -92 6 -173 10 -180 5 -8 9 9 9 42 1 30
3 73 6 95 24 190 36 270 44 291 6 14 10 59 10 100 0 67 2 74 19 74 27 0 31 9
37 92 4 68 25 166 44 213 8 18 9 17 9 -6 1 -41 21 -88 42 -100 16 -8 19 -6 19
15 0 27 15 42 25 26 11 -17 24 -11 31 15 3 13 12 29 19 35 11 9 16 4 24 -27
21 -80 40 -181 46 -245 4 -38 11 -68 16 -68 5 0 9 5 9 12 0 6 3 8 7 4 4 -4 12
10 18 31 14 49 45 53 60 7 6 -17 15 -37 21 -45 10 -13 24 -92 39 -224 3 -27
10 -63 15 -80 4 -16 11 -94 14 -173 7 -139 11 -165 41 -227 43 -88 65 -165 65
-222 0 -34 3 -68 6 -77 17 -45 74 12 74 76 0 18 5 40 11 48 7 11 9 4 4 -25 -4
-26 -1 -53 10 -77 11 -27 15 -73 15 -165 0 -99 5 -143 20 -193 14 -46 20 -94
20 -165 0 -103 11 -144 30 -115 5 8 10 38 10 65 3 242 22 403 48 398 6 -2 18
23 27 54 12 41 19 53 28 44 23 -23 36 -11 43 39 4 27 12 55 20 61 10 8 16 -1
29 -48 9 -32 22 -74 29 -93 8 -19 17 -84 21 -145 8 -132 21 -193 47 -222 12
-12 17 -27 13 -34 -5 -8 -4 -10 3 -5 7 4 12 18 12 32 0 23 25 84 34 84 2 0 4
-10 3 -22 0 -13 3 -52 7 -88 4 -36 9 -120 11 -187 2 -98 7 -130 24 -165 41
-84 51 -175 51 -449 0 -221 2 -258 16 -270 12 -10 17 -10 23 0 4 7 11 92 14
190 4 107 12 200 22 236 8 33 15 89 15 126 0 59 26 348 34 374 1 5 11 -47 21
-115 19 -124 35 -160 68 -160 8 0 20 18 27 40 14 43 35 67 44 52 3 -5 9 -26
15 -48 8 -34 23 -91 72 -277 8 -31 14 -38 32 -35 15 2 25 13 32 36 5 17 14 32
21 32 17 0 51 -139 65 -265 12 -115 34 -176 69 -195 25 -13 40 -69 40 -145 0
-59 17 -246 27 -295 l5 -25 15 29 c11 21 19 94 29 265 14 235 42 438 82 591
21 84 43 199 67 370 9 63 21 134 26 157 5 23 9 66 9 97 0 30 6 107 14 173 24
203 36 321 56 553 10 124 24 248 30 275 5 28 17 90 24 138 8 49 17 92 20 95
10 9 34 -30 41 -66 l6 -33 19 23 c12 15 22 20 28 13 10 -10 47 -298 133 -1020
26 -219 52 -392 62 -401 12 -12 8 59 -7 133 -21 104 -30 325 -15 368 7 19 16
35 20 35 15 0 20 -21 9 -35 -14 -17 -15 -16 23 -21 l28 -3 -6 77 c-3 42 -12
133 -20 202 -8 69 -22 190 -30 270 -8 80 -21 201 -30 270 -15 127 -20 258 -9
247 3 -3 12 -34 19 -69 7 -35 21 -108 33 -163 19 -97 40 -230 62 -405 6 -47
15 -112 20 -145 13 -79 176 -678 195 -716 9 -16 14 -30 13 -31 -1 -2 4 -12 11
-23 11 -18 11 -18 5 5 -4 14 -9 50 -10 80 -2 30 -6 70 -10 87 -4 20 -2 33 4
33 14 0 21 -22 28 -88 7 -59 23 -82 57 -82 45 0 73 77 53 150 -8 31 -16 42
-36 46 -50 11 -51 12 -49 66 1 35 -6 68 -20 98 l-21 45 5 -100 c3 -61 1 -106
-5 -115 -7 -11 -8 2 -4 42 8 67 -10 82 -21 18 -8 -50 -22 -51 -31 -2 -4 20
-10 42 -14 47 -4 6 -11 30 -15 55 -4 25 -14 53 -22 62 -11 12 -13 24 -6 44 7
22 5 32 -9 46 -10 10 -18 28 -18 41 0 12 -9 51 -20 87 -36 119 -72 558 -48
587 9 11 9 16 -1 23 -9 5 -11 17 -7 35 5 21 10 24 20 16 10 -8 17 -7 27 5 17
21 17 208 0 228 -13 15 -4 47 15 59 9 5 11 24 7 62 -4 36 -2 60 6 69 9 11 10
20 2 35 -6 11 -11 48 -12 83 -1 35 -4 88 -7 118 -6 47 -10 55 -29 58 -19 3
-23 10 -23 41 0 43 -8 53 -63 72 -33 12 -42 22 -69 81 -18 37 -35 68 -40 68
-4 0 -8 -75 -8 -167 0 -210 -17 -208 -31 3 -5 82 -16 187 -25 234 -49 272 -88
417 -126 466 -23 29 -95 84 -111 84 -5 0 16 -27 47 -61 31 -33 56 -65 56 -70
0 -6 -30 15 -66 45 -36 31 -69 56 -75 56 -15 0 -10 27 12 67 12 21 25 43 29
48 4 6 10 28 12 50 3 22 19 78 36 125 16 47 42 124 57 172 21 67 32 89 49 95
11 4 151 6 310 5 289 -1 290 -1 345 23 31 14 95 36 142 48 l87 23 -20 -27
c-32 -43 -37 -101 -26 -302 10 -164 9 -190 -4 -203 -15 -15 -197 -73 -230 -74
-28 0 -22 25 36 149 29 64 57 127 61 141 7 22 6 23 -8 12 -9 -8 -19 -24 -23
-35 -4 -12 -31 -75 -61 -140 -30 -66 -53 -126 -51 -134 2 -9 25 -28 52 -43
l49 -26 4 -103 c3 -57 2 -114 -1 -127 -8 -30 -36 -38 -85 -23 -33 10 -43 19
-58 53 -16 40 -17 40 -21 14 -4 -31 -23 -36 -46 -12 -13 12 -16 41 -17 132 -1
64 -4 106 -6 92 -5 -29 -35 -90 -44 -90 -4 0 -12 7 -19 15 -7 8 -20 15 -29 15
-42 1 -135 46 -125 62 4 7 -1 8 -16 3 -16 -5 -20 -4 -16 4 15 24 14 90 -4 161
-10 41 -19 68 -19 60 -2 -26 -75 -19 -107 10 l-26 25 8 -25 c5 -14 7 -43 5
-65 -4 -36 -4 -70 -1 -210 1 -22 25 -107 55 -190 46 -131 93 -267 125 -371 6
-17 10 -38 10 -47 0 -9 4 -17 9 -17 5 0 12 -8 15 -18 6 -18 46 -39 99 -52 18
-5 70 -19 117 -33 161 -48 230 -55 395 -44 83 6 123 11 290 37 74 12 128 12
75 0 -19 -4 -80 -20 -135 -35 -55 -15 -129 -34 -165 -41 -105 -23 -100 -19
-100 -78 0 -37 5 -58 16 -67 13 -11 15 -29 12 -102 -5 -105 -8 -101 112 -111
47 -4 89 -11 93 -15 8 -8 -93 -21 -165 -21 -55 0 -73 -31 -57 -96 7 -27 16
-65 20 -85 5 -20 19 -51 31 -69 40 -58 66 -70 174 -82 54 -5 106 -12 114 -15
25 -9 -49 -31 -110 -34 l-55 -2 55 -6 c35 -4 81 -20 126 -43 102 -53 198 -82
369 -113 195 -35 334 -69 382 -94 21 -11 60 -38 88 -61 59 -50 105 -75 199
-106 38 -13 90 -37 115 -54 50 -32 101 -90 79 -90 -7 0 -19 9 -25 19 -17 27
-106 75 -198 105 -56 19 -102 43 -155 83 -99 74 -166 104 -255 114 -120 13
-438 77 -490 99 -61 25 -86 32 -92 26 -3 -3 -12 -1 -20 6 -7 6 -16 8 -19 5
-12 -11 8 -27 47 -37 27 -8 39 -16 36 -24 -3 -8 -1 -18 4 -23 11 -11 2 -63
-11 -63 -5 0 -11 13 -15 29 -8 38 -32 60 -41 38 -7 -19 -12 -46 -13 -69 -1
-14 -10 -18 -36 -18 -19 0 -35 -4 -35 -8 0 -10 -62 -8 -79 2 -8 5 -12 3 -10
-5 5 -43 0 -49 -46 -49 -25 0 -45 5 -45 10 0 6 -38 10 -95 10 -78 0 -95 3 -95
15 0 8 -7 15 -15 15 -11 0 -15 -11 -15 -40 0 -53 24 -105 78 -173 12 -16 22
-36 22 -44 0 -9 6 -21 14 -27 17 -14 46 -89 46 -120 0 -14 11 -37 24 -53 13
-15 26 -45 30 -65 4 -23 13 -38 21 -38 10 0 15 -10 15 -29 0 -16 6 -34 14 -40
8 -7 18 -25 21 -41 3 -16 20 -47 36 -69 16 -23 29 -46 29 -53 0 -7 9 -24 20
-38 11 -14 20 -33 20 -43 0 -10 8 -21 18 -24 9 -4 21 -12 25 -20 13 -22 23
-15 40 27 11 29 21 40 37 40 11 0 33 11 48 25 l27 26 9 -26 c13 -32 28 -32 62
2 18 18 29 23 32 15 2 -7 23 -12 53 -12 48 0 49 1 49 30 0 25 4 30 25 30 24 0
25 2 25 68 0 56 4 72 20 87 16 15 22 16 35 5 14 -11 17 -10 22 8 3 12 9 22 13
22 8 0 -11 -82 -21 -90 -11 -8 -19 -79 -21 -183 -1 -54 -6 -101 -10 -103 -4
-3 -8 -35 -7 -72 l1 -67 14 75 c8 41 19 120 24 175 10 114 27 213 39 236 9 15
16 59 61 364 27 182 27 183 29 98 1 -97 -26 -410 -44 -503 -30 -154 -44 -281
-54 -480 -13 -248 -27 -420 -46 -560 -8 -58 -17 -132 -20 -165 -4 -33 -13
-109 -21 -170 -8 -60 -25 -202 -39 -315 -13 -113 -42 -293 -64 -400 -22 -107
-51 -249 -64 -315 -13 -66 -30 -165 -36 -220 -10 -91 -46 -268 -89 -435 -18
-74 -29 -484 -15 -605 l8 -70 32 57 c32 56 32 57 37 225 5 183 6 194 43 301
21 60 24 82 18 132 -5 42 -3 65 5 75 9 11 10 18 1 29 -20 24 -23 100 -7 246
14 136 39 242 106 460 11 36 20 81 21 100 0 19 6 69 14 110 21 109 53 360 61
475 7 109 31 206 45 183 5 -7 9 -21 9 -30 0 -22 13 -23 30 -3 7 8 19 15 26 15
20 0 19 96 -1 104 -9 3 -12 12 -9 21 4 9 0 28 -7 42 l-14 26 -6 -34 c-4 -25
-7 -9 -13 58 -8 91 5 225 25 249 5 6 6 13 4 16 -6 6 13 184 22 208 10 30 22
-27 13 -62 -6 -18 -8 -39 -5 -48 2 -8 1 -60 -4 -114 -11 -135 12 -343 29 -252
5 32 30 48 30 21 0 -16 10 -17 105 -10 74 5 105 4 105 -4 0 -6 -22 -12 -52
-12 l-53 -2 60 -7 c73 -8 92 -4 98 21 7 24 50 25 103 2 l39 -16 -45 -9 c-25
-5 -55 -7 -67 -5 -13 2 -23 1 -23 -3 0 -4 33 -10 74 -12 83 -4 99 -11 70 -32
-19 -14 -19 -15 1 -23 11 -4 39 -8 62 -8 22 0 36 -3 30 -7 -8 -5 -6 -8 6 -8 9
0 17 -6 17 -13 0 -20 33 -47 58 -47 15 0 24 -8 28 -26 6 -25 45 -74 58 -74 4
0 20 -10 36 -22 24 -17 30 -29 30 -60 0 -31 4 -38 19 -38 12 0 23 10 28 25 8
24 9 24 31 10 12 -9 22 -23 22 -31 0 -11 15 -14 64 -14 55 0 64 -3 69 -20 8
-29 86 -29 94 0 7 25 11 25 43 0 14 -11 36 -20 50 -20 33 0 91 -36 97 -61 3
-10 9 -19 14 -19 5 0 25 -33 44 -73 31 -64 35 -86 45 -201 5 -71 10 -180 10
-242 0 -62 4 -115 9 -118 9 -6 21 73 21 144 0 55 32 222 64 339 14 47 27 107
31 134 6 47 29 65 41 32 13 -32 20 -10 39 113 19 126 21 173 17 410 -2 73 2
130 8 142 6 12 17 67 25 123 7 56 17 118 21 137 7 34 8 34 15 10 4 -14 7 -84
8 -156 1 -97 6 -151 22 -210 23 -90 39 -116 39 -64 0 26 3 31 12 22 7 -7 20
-12 30 -12 22 0 33 -26 43 -99 6 -46 9 -51 18 -35 6 11 14 146 18 341 7 294
19 417 37 398 4 -4 9 -169 12 -368 6 -403 11 -442 50 -341 20 51 24 88 31 267
4 114 10 216 13 225 3 9 12 119 20 244 8 125 20 236 25 247 6 11 11 33 11 50
0 17 5 31 10 31 6 0 10 -27 10 -60 0 -54 12 -79 22 -48 3 7 9 8 18 3 13 -8 48
-13 135 -17 l50 -3 2 -62 c0 -34 6 -70 12 -80 8 -13 10 8 11 87 0 58 1 120 1
139 0 18 -7 51 -16 74 -11 28 -13 43 -6 50 14 14 14 30 2 22 -6 -3 -8 6 -5 20
4 21 1 25 -18 25 -19 0 -20 -2 -8 -11 13 -9 13 -10 0 -6 -8 2 -14 11 -12 19 1
11 -9 17 -36 22 -21 3 -47 15 -57 26 -10 11 -24 20 -32 20 -8 0 -28 14 -46 31
-17 17 -47 41 -66 54 -20 12 -60 42 -90 66 -30 24 -70 56 -89 71 -78 61 -123
108 -274 288 -48 58 -82 88 -197 179 -37 29 -37 29 -86 86 -45 52 -35 60 14
10 21 -22 69 -62 107 -90 83 -59 113 -89 229 -224 119 -140 132 -152 275 -260
141 -107 276 -181 429 -234 57 -20 106 -39 108 -41 2 -2 3 -26 1 -52 l-4 -49
-8 41 -8 41 -59 2 c-45 1 -59 -2 -59 -12 0 -11 11 -13 48 -9 39 4 45 3 36 -9
-18 -23 -20 -102 -6 -299 6 -74 14 -254 17 -400 11 -409 25 -378 55 121 10
185 24 365 29 400 24 153 13 388 -17 381 -7 -1 -12 6 -13 15 0 14 -3 12 -10
-5 -10 -27 -29 -21 -29 9 0 16 -3 18 -19 9 -13 -7 -22 -7 -26 0 -3 5 -1 10 6
10 8 0 10 14 7 44 -4 33 -2 46 9 50 10 4 13 22 12 65 -1 33 3 67 9 74 18 21
-17 33 -141 52 -244 37 -307 71 -112 61 145 -8 229 3 259 34 11 11 17 23 13
26 -4 4 -52 2 -108 -5 -58 -7 -135 -10 -178 -6 -78 7 -176 29 -185 43 -2 4 73
7 167 7 139 0 179 4 210 17 20 9 37 21 37 26 0 4 20 23 45 42 25 18 43 36 40
38 -3 3 -44 8 -92 11 l-88 7 39 17 c21 9 82 24 135 33 97 15 164 37 191 61 12
11 12 13 -3 13 -66 0 -490 -91 -536 -114 -17 -9 -43 -21 -58 -27 l-28 -10 28
29 c36 38 116 74 237 107 175 49 192 54 198 59 10 10 -61 6 -138 -9 -156 -30
-193 -36 -198 -31 -3 3 4 9 14 13 10 3 22 11 26 17 12 18 9 69 -6 98 -13 25
-12 30 5 52 10 13 19 29 19 34 0 6 23 23 51 39 28 15 46 29 40 31 -19 6 -1 22
24 22 13 0 28 6 32 13 4 6 22 19 38 27 17 8 48 30 71 50 23 19 68 54 100 78
200 144 123 118 -236 -78 -69 -38 -138 -72 -155 -76 l-30 -6 25 24 c24 24 197
134 371 236 47 28 92 59 99 69 12 15 12 16 0 6 -8 -7 -23 -13 -34 -13 -12 0
-88 -36 -170 -80 -144 -78 -182 -93 -134 -53 48 40 69 71 74 112 5 40 -7 55
-23 28 -5 -8 -17 -11 -30 -8 -20 5 -12 17 82 111 57 58 105 111 105 118 1 62
-226 -133 -370 -318 -53 -69 -105 -131 -114 -139 -31 -26 -18 12 30 84 25 39
57 95 72 125 22 48 91 143 116 161 5 4 6 11 2 17 -3 5 0 12 8 15 11 5 46 60
46 74 0 13 -32 -2 -50 -24 -17 -22 -23 -25 -30 -13 -12 18 -13 70 -2 70 4 0
13 12 19 28 7 15 28 56 47 92 37 69 39 85 5 54 -53 -48 -123 -165 -153 -257
-3 -11 -15 -21 -26 -24 -11 -3 -20 -10 -20 -15 0 -6 -6 -5 -14 2 -12 9 -16 5
-22 -24 -3 -20 -4 -45 -1 -55 3 -11 -1 -22 -8 -25 -9 -3 -18 18 -30 72 -14 63
-16 103 -11 222 9 184 16 232 41 293 4 9 3 17 -2 17 -11 0 -47 -115 -63 -199
-5 -29 -10 -176 -10 -325 -1 -165 -6 -310 -14 -371 -13 -99 -76 -427 -95 -495
-6 -19 -13 -48 -16 -64 -3 -15 -8 -26 -10 -24 -3 3 2 61 10 129 31 255 44 392
39 401 -8 13 -24 9 -24 -7 0 -8 -5 -15 -11 -15 -6 0 -9 8 -7 18 3 10 -1 23 -9
30 -15 15 -17 42 -3 42 6 0 22 -12 35 -27 18 -21 24 -24 25 -12 0 9 -24 44
-54 77 -30 34 -81 105 -113 159 -32 54 -65 106 -75 116 -9 11 -42 57 -73 103
-86 126 -156 165 -345 190 -124 16 -210 18 -210 4 0 -5 19 -10 43 -10 23 0 53
-7 67 -15 14 -8 33 -17 42 -21 9 -3 18 -15 20 -26 2 -13 16 -25 41 -33 22 -7
46 -23 54 -35 8 -12 40 -32 70 -46 118 -54 333 -228 333 -269 -1 -18 -2 -18
-13 -4 -28 36 -123 87 -171 92 l-48 5 5 -87 c9 -134 25 -228 46 -269 26 -49
61 -130 61 -140 0 -5 7 -24 16 -41 16 -33 35 -149 27 -164 -2 -4 -15 -4 -29
-1 -18 5 -24 2 -24 -10 0 -26 -17 -18 -39 19 -11 19 -27 35 -35 35 -28 0 -66
23 -66 40 0 10 -13 23 -30 30 -16 7 -34 18 -40 25 -6 8 -17 12 -24 9 -7 -3
-19 2 -26 11 -7 8 -17 15 -22 15 -5 0 -21 11 -36 25 -15 14 -41 32 -59 40 -22
11 -34 25 -38 47 -4 18 -14 38 -21 46 -8 7 -14 20 -14 28 0 8 -7 14 -15 14 -8
0 -15 7 -15 16 0 8 -12 28 -27 43 -16 15 -26 36 -25 45 3 11 0 16 -7 12 -6 -4
-11 0 -11 9 0 12 -5 15 -17 11 -10 -4 -15 -4 -11 -1 3 3 -5 18 -18 32 -14 15
-23 32 -20 39 2 6 -3 22 -11 35 -9 12 -11 19 -4 15 6 -4 18 -3 26 4 11 9 7 17
-21 46 -19 18 -39 34 -43 34 -5 0 -12 19 -16 42 -4 24 -15 48 -24 55 -9 6 -16
15 -16 20 -1 22 -28 53 -45 53 -13 0 -20 7 -20 20 0 11 5 20 11 20 5 0 7 5 4
10 -4 6 -11 8 -16 5 -5 -4 -14 7 -21 22 -13 30 -53 73 -69 73 -5 0 -9 4 -9 9
0 18 -45 80 -62 86 -10 4 -18 12 -18 19 0 7 -16 28 -37 47 l-36 34 42 -60 c23
-33 51 -70 62 -83 10 -12 19 -26 19 -32 0 -5 6 -13 13 -17 25 -16 64 -80 82
-138 20 -59 107 -241 126 -260 5 -5 9 -18 9 -28 0 -10 6 -31 14 -45 23 -42 56
-140 56 -165 0 -22 -1 -22 -20 3 -10 14 -53 100 -95 192 -42 92 -83 172 -91
179 -8 6 -14 22 -14 36 0 48 -46 131 -156 278 -168 225 -240 292 -335 310 -19
3 -75 0 -124 -8 -50 -9 -115 -18 -145 -20 -55 -5 -54 -5 20 14 140 35 264 52
304 41 29 -8 123 -67 146 -92 3 -3 13 -11 23 -19 16 -13 16 -12 5 10 -26 49
-59 88 -81 94 -45 14 -77 30 -74 39 7 20 114 46 193 46 44 1 105 7 135 15 62
17 199 20 199 5 0 -5 -11 -10 -25 -10 -39 0 -40 -25 -4 -86 46 -77 68 -90 121
-75 53 16 196 157 202 200 2 9 14 17 29 19 57 7 23 47 -123 142 -103 67 -256
145 -307 155 -26 5 -32 3 -38 -14 -10 -34 -60 -68 -205 -141 -132 -67 -230
-141 -230 -172 0 -25 -18 8 -24 45 -7 35 -4 41 30 72 20 18 69 49 108 69 123
60 174 126 414 531 35 60 56 105 91 200 7 16 19 5 80 -73 40 -51 77 -92 82
-92 4 0 22 -22 40 -48 22 -34 52 -61 101 -90 38 -23 74 -42 81 -42 7 0 39 -13
72 -28 51 -24 226 -85 355 -124 19 -6 67 -25 105 -43 39 -18 99 -43 135 -55
36 -13 74 -31 85 -40 25 -22 80 -50 97 -50 29 -1 128 -49 208 -102 133 -88
188 -155 302 -367 16 -30 41 -75 56 -100 43 -73 128 -293 158 -409 25 -95 101
-493 108 -562 8 -80 43 -191 77 -245 61 -95 60 -91 69 -354 10 -267 16 -335
35 -351 30 -25 53 100 56 320 2 118 7 168 21 207 10 29 19 85 19 125 1 40 5
107 8 148 6 63 8 70 13 40 4 -19 10 -75 13 -123 7 -96 12 -117 28 -117 6 0 8
3 4 6 -3 3 1 24 9 46 9 25 16 104 20 212 6 177 12 208 68 358 14 37 31 97 37
133 7 36 16 65 19 65 4 0 22 -5 40 -12 28 -9 35 -8 45 5 7 10 17 17 24 17 15
0 61 -41 61 -55 0 -23 45 -55 68 -48 16 4 22 1 22 -11 0 -9 7 -16 15 -16 8 0
17 -10 20 -22 5 -23 21 -168 32 -283 5 -58 16 -85 34 -85 5 0 9 19 9 43 0 33
-3 39 -11 27 -9 -12 -9 -11 -4 5 14 37 21 119 19 205 -4 130 -4 130 -12 130
-9 0 -4 248 6 270 3 8 9 -10 12 -40 4 -42 9 -56 23 -58 15 -3 17 6 17 85 1 89
22 278 33 289 3 3 8 -16 12 -43 3 -26 8 -57 11 -68 3 -11 9 -67 14 -124 5 -57
12 -106 15 -109 12 -13 19 14 27 106 20 228 25 270 42 322 10 30 22 64 28 75
20 35 38 157 38 250 0 50 7 117 15 148 8 32 15 82 15 112 0 60 -2 56 218 400
181 282 197 309 492 775 68 107 156 246 197 309 41 62 73 121 71 130 -3 15
-171 16 -2228 13 -1224 -2 -2241 1 -2260 6 -31 7 -35 11 -32 37 2 15 14 44 26
64 13 20 26 50 30 66 4 17 16 49 28 73 32 68 48 141 48 229 0 91 -22 211 -46
252 -23 40 -128 104 -159 98 -35 -6 -40 8 -8 22 l26 12 -31 32 c-41 43 -107
177 -126 257 -54 223 -84 297 -186 461 -79 126 -105 155 -165 183 l-54 26
-615 0 -615 0 -58 -49z m545 -53 c-7 -21 -121 -97 -156 -104 -52 -10 -48 1 13
37 31 19 73 44 93 56 42 26 56 29 50 11z m382 -239 c0 -19 -16 -34 -23 -22 -3
5 -8 26 -12 48 l-6 40 20 -24 c12 -13 21 -31 21 -42z m80 -28 c0 -20 -12 -58
-28 -87 -26 -49 -194 -251 -318 -384 -68 -72 -80 -92 -123 -207 -82 -219 -149
-351 -237 -467 -33 -43 -78 -103 -101 -134 -24 -31 -43 -52 -43 -46 0 11 26
52 69 109 106 141 175 259 187 320 3 19 10 38 15 41 15 9 10 34 -6 34 -10 0
-15 -11 -16 -32 0 -18 -3 -27 -6 -20 -7 17 -23 15 -23 -2 0 -16 -38 -86 -47
-86 -8 0 7 62 25 105 16 39 50 91 85 129 9 11 17 26 17 34 0 8 7 11 19 7 15
-4 20 1 26 27 4 18 7 37 6 41 -1 5 4 5 10 1 9 -5 10 1 5 22 -5 21 -4 25 4 14
8 -12 10 -11 10 7 0 28 66 109 124 153 67 51 275 322 298 388 10 29 16 57 13
62 -4 6 -3 15 0 20 13 20 35 -11 35 -49z m-784 -39 c-8 -22 -23 -57 -34 -78
-11 -21 -25 -58 -32 -82 -9 -29 -30 -58 -68 -94 -66 -63 -86 -48 -21 15 25 25
56 72 77 117 35 76 81 160 88 160 1 0 -3 -17 -10 -38z m1155 -515 c41 -21 74
-47 94 -74 16 -23 55 -77 85 -119 30 -43 70 -93 89 -113 77 -81 113 -183 110
-308 -1 -38 -1 -38 -9 -8 -4 17 -13 55 -19 86 -7 31 -18 65 -26 75 -13 17 -13
15 -5 -16 17 -61 12 -215 -10 -303 -36 -142 -38 -147 -69 -147 -15 0 -35 8
-43 18 -16 17 -40 82 -53 139 -3 18 -25 60 -48 95 l-42 63 3 132 2 133 -35 50
c-19 27 -35 53 -35 57 -1 5 -17 20 -37 36 -31 23 -46 27 -100 27 -67 0 -116
18 -127 45 -13 36 -6 102 14 128 23 29 39 34 132 36 57 1 75 -4 129 -32z m543
-248 c25 -28 50 -67 56 -87 13 -47 13 -149 0 -157 -6 -4 -10 12 -10 42 0 86
-14 117 -99 234 -29 40 9 17 53 -32z m-3 -187 c4 -27 11 -105 14 -174 7 -121
7 -126 -13 -137 -11 -6 -25 -11 -30 -11 -6 0 -10 53 -11 123 0 67 -4 152 -7
189 -4 36 -3 71 1 78 13 21 37 -15 46 -68z m-83 -22 c2 -14 -1 -37 -6 -50 -9
-24 -10 -23 -29 20 -23 51 -21 62 10 58 15 -2 23 -11 25 -28z m-2107 -218 c54
-35 74 -58 59 -67 -6 -4 -18 -4 -26 -1 -28 11 -110 -15 -159 -49 -49 -36 -120
-50 -110 -22 6 15 -32 41 -40 27 -8 -12 -28 -13 -23 -1 6 17 121 103 162 122
56 26 85 24 137 -9z m719 -223 c29 -124 25 -267 -8 -235 -3 4 -9 65 -13 136
-4 71 -10 149 -14 172 -10 69 12 23 35 -73z m1413 30 c-3 -61 -12 -91 -23 -84
-11 7 -14 118 -3 129 16 16 28 -4 26 -45z m-573 -5 c3 -22 16 -53 28 -69 36
-46 15 -42 -34 6 -62 61 -72 114 -21 107 17 -2 23 -12 27 -44z m-480 1 c29
-15 54 -48 44 -58 -8 -8 -154 55 -148 65 8 13 73 9 104 -7z m-1487 -32 c-4
-10 -19 -37 -35 -60 -29 -43 -68 -58 -84 -32 -5 8 3 10 24 7 27 -4 30 -2 21
14 -7 14 -6 18 6 18 14 0 16 5 19 38 1 14 25 32 43 32 8 0 10 -7 6 -17z m707
-77 c8 -23 13 -24 62 -19 47 4 58 1 100 -27 59 -39 75 -82 88 -245 5 -66 12
-137 16 -157 8 -46 -5 -49 -30 -7 -10 17 -20 28 -23 26 -6 -7 48 -112 91 -176
40 -59 40 -78 1 -41 -100 94 -354 596 -331 655 8 21 15 19 26 -9z m637 -38
c-3 -7 -5 -2 -5 12 0 14 2 19 5 13 2 -7 2 -19 0 -25z m-1485 -139 c12 -19 12
-26 -4 -59 -10 -20 -27 -79 -37 -131 -10 -52 -22 -103 -26 -114 -29 -75 -61
-130 -117 -197 -35 -42 -72 -96 -83 -120 -10 -23 -28 -66 -40 -94 -13 -28 -45
-76 -72 -106 -27 -30 -74 -88 -105 -129 -30 -41 -68 -88 -84 -105 -89 -94
-122 -133 -148 -173 -16 -25 -55 -73 -87 -106 -33 -32 -59 -64 -59 -70 0 -6
-13 -26 -29 -45 -15 -19 -44 -67 -64 -106 -19 -38 -42 -76 -51 -83 -9 -8 -16
-19 -16 -26 0 -7 -16 -37 -36 -66 -20 -30 -45 -72 -56 -94 -11 -22 -31 -52
-45 -67 -17 -18 -23 -33 -19 -46 5 -15 2 -20 -11 -18 -13 1 -23 -12 -34 -44
-9 -25 -21 -58 -27 -73 -7 -16 -12 -34 -12 -41 0 -6 -4 -16 -8 -22 -5 -5 -20
-36 -33 -69 -38 -98 -119 -244 -141 -256 -26 -14 -40 4 -32 41 9 36 47 132 94
235 43 94 54 121 144 351 30 78 73 172 96 210 24 38 56 91 72 119 28 46 81
126 100 150 30 38 142 203 179 263 24 40 70 110 103 154 32 45 64 95 71 112 7
17 22 42 32 56 11 14 32 48 48 75 16 28 50 75 77 105 52 58 218 302 218 320 0
5 14 24 30 42 17 17 30 38 30 47 0 20 49 95 57 87 3 -3 15 9 27 27 12 18 32
33 44 35 25 4 29 20 7 28 -23 9 -18 24 9 24 13 0 30 -10 38 -21z m552 -151
c39 -28 51 -44 107 -147 25 -47 50 -86 56 -88 6 -2 21 12 33 32 22 36 40 46
40 21 0 -8 -11 -38 -25 -68 -14 -29 -25 -60 -26 -68 -1 -19 -95 -100 -116
-100 -13 0 -13 3 -3 15 20 24 2 31 -30 11 -17 -9 -35 -14 -40 -11 -15 9 -12
54 10 119 11 33 20 72 20 88 0 36 17 36 31 1 7 -19 7 -35 0 -51 -16 -33 -14
-42 9 -42 11 0 27 11 35 24 18 27 17 29 -45 158 -26 54 -42 74 -86 104 -30 21
-54 39 -54 40 0 7 55 -18 84 -38z m184 -83 c-16 -98 -18 -106 -28 -100 -16 10
-11 71 10 121 11 26 22 45 24 43 2 -2 -1 -31 -6 -64z m-161 -67 c-3 -8 -6 -5
-6 6 -1 11 2 17 5 13 3 -3 4 -12 1 -19z m314 -5 c-14 -27 -91 -99 -91 -86 0
17 73 102 88 102 9 1 10 -4 3 -16z m1945 -157 c0 0 24 -49 53 -108 42 -85 52
-113 46 -137 -10 -46 -75 -79 -75 -37 0 7 -9 30 -19 52 -19 38 -35 115 -45
202 -4 40 -3 42 17 36 12 -4 22 -7 23 -8z m-2376 -296 c0 -14 -37 -50 -52 -50
-6 0 -26 -12 -45 -26 -19 -14 -37 -24 -39 -21 -10 10 18 43 64 74 49 33 72 40
72 23z m1826 -15 c36 -6 87 -57 103 -104 16 -50 12 -73 -5 -26 -20 54 -60 93
-108 106 -26 7 -154 10 -361 9 -474 -4 -567 -2 -532 13 21 9 138 11 450 9 232
-1 436 -4 453 -7z m-196 -312 c0 -119 -13 -129 -32 -24 -10 55 -10 66 7 97 10
19 20 34 22 34 1 0 3 -48 3 -107z m167 -175 c-2 -13 -4 -3 -4 22 0 25 2 35 4
23 2 -13 2 -33 0 -45z m-1777 -34 c0 -8 -4 -12 -10 -9 -5 3 -10 10 -10 16 0 5
5 9 10 9 6 0 10 -7 10 -16z m-209 -271 c67 -62 119 -135 119 -166 0 -17 -3
-16 -22 8 -23 30 -95 85 -111 85 -6 0 17 -28 50 -63 64 -66 86 -102 98 -154
10 -47 -6 -41 -34 13 -14 25 -44 62 -67 83 -45 40 -142 96 -151 88 -2 -3 29
-30 70 -61 83 -61 124 -108 157 -179 20 -42 21 -51 10 -72 -7 -13 -16 -22 -20
-20 -8 5 -16 -72 -30 -295 -5 -80 -9 -148 -9 -152 -1 -5 -5 -8 -10 -8 -4 0
-11 42 -13 93 -9 156 -70 291 -187 417 -38 40 -61 74 -61 88 0 13 15 64 34
115 19 51 41 115 50 142 17 54 41 95 56 95 5 0 37 -26 71 -57z m975 -319 c4
-171 4 -327 0 -347 -6 -34 -9 -36 -28 -26 -21 11 -21 13 -15 293 7 299 15 412
28 399 4 -4 11 -148 15 -319z m564 -87 c-32 -28 -60 -71 -60 -92 0 -9 -4 -13
-10 -10 -14 8 -12 47 3 65 16 21 70 59 82 60 6 0 -1 -10 -15 -23z m-1160 -257
c0 -5 -7 -10 -16 -10 -8 0 -12 5 -9 10 3 6 10 10 16 10 5 0 9 -4 9 -10z m2059
-145 c118 -14 141 -21 168 -55 30 -36 123 -260 123 -295 0 -31 -51 35 -106
138 -54 100 -73 115 -190 152 -127 40 -194 67 -194 78 0 6 15 7 38 3 20 -3 93
-13 161 -21z m1181 -235 c0 -5 -5 -10 -11 -10 -5 0 -7 5 -4 10 3 6 8 10 11 10
2 0 4 -4 4 -10z m-3660 -156 c0 -4 -9 -21 -19 -38 -14 -22 -36 -37 -71 -50
-28 -10 -54 -16 -57 -12 -4 3 0 6 8 6 8 0 39 23 69 50 52 47 70 58 70 44z m27
-231 c-5 -140 -9 -164 -24 -149 -12 12 -13 258 -1 283 23 48 31 9 25 -134z
m1188 132 c136 -25 164 -36 75 -29 -83 6 -190 30 -205 46 -7 7 -2 9 15 5 14
-3 66 -13 115 -22z m198 -42 c-7 -2 -19 -2 -25 0 -7 3 -2 5 12 5 14 0 19 -2
13 -5z m1710 -183 c17 -17 23 -30 15 -30 -13 0 -58 42 -58 54 0 14 17 4 43
-24z m-4613 -327 c0 -20 -3 -24 -11 -16 -7 7 -9 19 -6 27 10 24 17 19 17 -11z
m2490 -78 c0 -8 -4 -15 -10 -15 -5 0 -10 7 -10 15 0 8 5 15 10 15 6 0 10 -7
10 -15z m1659 -242 c23 -32 41 -64 41 -72 0 -8 -11 3 -25 23 -14 20 -25 41
-25 46 0 6 -4 10 -8 10 -5 0 -14 11 -20 25 -18 39 -7 30 37 -32z m1541 -153
c6 0 24 -7 39 -15 16 -8 61 -16 100 -17 65 -3 71 -5 69 -23 -5 -32 -95 -25
-178 12 -139 64 -166 78 -202 101 -70 45 -39 41 62 -9 54 -27 104 -49 110 -49z
m-3850 45 c0 -8 -4 -15 -10 -15 -5 0 -10 7 -10 15 0 8 5 15 10 15 6 0 10 -7
10 -15z m3671 -328 c-8 -8 -11 -5 -11 9 0 27 14 41 18 19 2 -9 -1 -22 -7 -28z
m-2121 -457 c0 -22 -3 -40 -8 -40 -4 0 -6 18 -4 40 2 22 6 40 8 40 2 0 4 -18
4 -40z"/>
<path d="M3719 6875 c33 -36 61 -70 61 -75 0 -10 44 -60 53 -60 18 0 -52 102
-100 148 -79 73 -87 65 -14 -13z"/>
<path d="M3680 9373 c0 -35 3 -44 10 -33 11 17 10 80 -2 80 -4 0 -8 -21 -8
-47z"/>
<path d="M3730 7327 c0 -15 31 -69 37 -63 3 3 -4 20 -16 38 -11 18 -21 29 -21
25z"/>
<path d="M7746 7006 c-9 -40 -23 -82 -31 -92 -8 -10 -15 -25 -15 -31 0 -20 18
-15 25 7 3 11 13 20 20 20 27 0 46 55 39 115 -4 30 -10 55 -14 55 -5 0 -15
-33 -24 -74z"/>
<path d="M7377 6703 c-9 -8 -9 -235 -1 -297 11 -80 19 -50 19 77 1 67 4 146 8
175 6 41 5 52 -6 52 -8 0 -17 -3 -20 -7z"/>
<path d="M7542 6575 c0 -16 2 -22 5 -12 2 9 2 23 0 30 -3 6 -5 -1 -5 -18z"/>
<path d="M7955 6461 c-3 -5 -1 -12 5 -16 5 -3 10 1 10 9 0 18 -6 21 -15 7z"/>
<path d="M4210 6426 c0 -23 17 -28 86 -24 l59 3 -50 12 c-27 7 -60 15 -72 19
-17 5 -23 2 -23 -10z"/>
<path d="M4307 6363 c-11 -10 -8 -93 3 -93 6 0 10 20 10 44 0 26 5 46 13 49 8
4 6 6 -4 6 -9 1 -19 -2 -22 -6z"/>
<path d="M4540 6356 c0 -2 14 -6 30 -8 17 -3 30 -1 30 4 0 4 -13 8 -30 8 -16
0 -30 -2 -30 -4z"/>
<path d="M7537 6295 c-10 -122 -7 -187 11 -192 9 -4 12 21 11 104 -1 138 -14
187 -22 88z"/>
<path d="M4410 6300 c0 -5 5 -10 11 -10 5 0 7 5 4 10 -3 6 -8 10 -11 10 -2 0
-4 -4 -4 -10z"/>
<path d="M4495 6301 c-3 -5 -1 -12 5 -16 5 -3 10 -17 10 -31 0 -31 16 -23 22
11 4 18 0 29 -13 35 -11 6 -20 6 -24 1z"/>
<path d="M7410 6282 c0 -31 30 -122 40 -122 5 0 11 -8 13 -17 4 -16 5 -16 6
-1 0 9 -3 20 -9 23 -5 3 -10 17 -10 29 0 13 -7 29 -16 37 -8 7 -13 20 -11 30
3 9 1 23 -4 30 -6 10 -9 8 -9 -9z"/>
<path d="M4350 6260 c0 -5 5 -10 10 -10 6 0 10 5 10 10 0 6 -4 10 -10 10 -5 0
-10 -4 -10 -10z"/>
<path d="M4307 6183 c-3 -15 -1 -35 4 -45 5 -9 10 -27 10 -40 1 -13 5 2 9 32
4 30 5 61 2 68 -7 21 -19 13 -25 -15z"/>
<path d="M4641 6173 c7 -10 15 -20 16 -22 2 -2 3 5 3 17 0 14 -6 22 -16 22
-14 0 -15 -3 -3 -17z"/>
<path d="M4490 6150 c0 -11 5 -20 10 -20 6 0 10 9 10 20 0 11 -4 20 -10 20 -5
0 -10 -9 -10 -20z"/>
<path d="M7492 6110 c0 -14 2 -19 5 -12 2 6 2 18 0 25 -3 6 -5 1 -5 -13z"/>
<path d="M4586 6083 c-10 -24 -7 -293 3 -293 5 0 12 -10 16 -22 l8 -23 4 23
c5 27 23 29 30 2 3 -11 9 -20 13 -20 16 0 19 31 9 78 -5 26 -15 82 -22 125 -6
42 -15 77 -19 77 -4 0 -8 -4 -8 -10 0 -5 -5 -10 -11 -10 -8 0 -8 4 0 14 9 11
9 20 2 35 -9 16 -8 20 7 23 14 3 13 5 -5 10 -14 4 -24 1 -27 -9z"/>
<path d="M7510 6074 c0 -3 7 -12 15 -21 20 -19 32 -9 15 12 -12 15 -30 20 -30
9z"/>
<path d="M4320 5976 c0 -9 7 -12 20 -9 11 3 17 9 14 14 -8 14 -34 10 -34 -5z"/>
<path d="M4632 5720 c0 -14 2 -19 5 -12 2 6 2 18 0 25 -3 6 -5 1 -5 -13z"/>
<path d="M4761 5614 c0 -11 3 -14 6 -6 3 7 2 16 -1 19 -3 4 -6 -2 -5 -13z"/>
<path d="M4592 5430 c0 -14 2 -19 5 -12 2 6 2 18 0 25 -3 6 -5 1 -5 -13z"/>
<path d="M4594 4810 c3 -19 8 -56 12 -82 3 -26 12 -53 20 -59 8 -6 14 -20 14
-30 0 -10 4 -20 9 -24 15 -8 24 14 12 29 -6 7 -8 16 -5 19 11 11 -16 99 -42
142 l-26 40 6 -35z"/>
<path d="M8200 4683 c0 -23 5 -45 10 -48 13 -8 13 55 0 75 -7 11 -10 4 -10
-27z"/>
<path d="M2270 4415 c0 -57 11 -115 20 -110 10 6 0 127 -11 140 -5 5 -9 -7 -9
-30z"/>
<path d="M4440 4327 c0 -7 6 -22 14 -32 8 -11 12 -25 9 -31 -6 -17 18 -29 28
-13 4 7 11 10 16 6 4 -5 1 -12 -6 -17 -9 -5 -12 -18 -8 -39 5 -24 3 -31 -9
-31 -14 0 -15 -8 -9 -47 7 -48 24 -81 26 -53 1 8 1 21 0 28 -1 8 3 20 9 27 7
8 9 19 5 25 -3 5 -1 10 4 10 6 0 11 -13 11 -30 0 -16 5 -30 10 -30 6 0 10 -11
10 -25 0 -21 5 -25 30 -25 28 0 30 -3 30 -35 0 -24 5 -35 15 -35 11 0 15 11
15 38 0 20 3 54 6 75 5 30 4 37 -10 37 -10 0 -16 8 -16 24 0 18 -4 23 -18 19
-17 -4 -18 1 -11 59 4 35 6 65 3 67 -2 2 -4 -3 -4 -11 0 -9 -9 -18 -20 -21
-16 -4 -20 -14 -20 -51 0 -25 -4 -46 -10 -46 -5 0 -8 29 -5 70 3 53 0 73 -11
85 -19 19 -84 20 -84 2z"/>
<path d="M7805 4310 c-4 -6 -17 -63 -31 -127 -13 -64 -31 -127 -40 -141 -24
-36 -47 -429 -24 -406 20 20 62 214 71 329 10 137 26 265 39 312 8 32 -2 54
-15 33z"/>
<path d="M4499 4033 c-1 -10 0 -22 1 -28 1 -5 4 -19 6 -30 2 -11 8 -21 13 -23
5 -2 7 -11 4 -20 -2 -9 3 -26 11 -37 14 -20 15 -19 25 8 7 17 18 27 31 27 25
0 27 28 3 46 -10 7 -32 14 -49 14 -27 0 -31 3 -27 24 3 13 0 27 -6 30 -6 4
-12 -1 -12 -11z"/>
<path d="M4584 3895 c-8 -21 6 -41 17 -24 12 19 11 39 -1 39 -6 0 -13 -7 -16
-15z"/>
<path d="M4540 3855 c0 -8 4 -24 9 -37 5 -13 17 -50 26 -83 10 -33 21 -64 26
-69 13 -14 23 1 14 21 -5 10 -7 23 -6 30 1 6 -3 14 -9 18 -8 5 -8 11 0 20 13
16 4 39 -11 30 -5 -4 -5 5 1 20 12 33 13 48 1 41 -5 -3 -14 1 -21 9 -16 19
-30 19 -30 0z"/>
<path d="M4621 3593 c0 -5 4 -17 9 -28 8 -18 9 -17 9 8 1 15 -3 27 -9 27 -5 0
-10 -3 -9 -7z"/>
<path d="M5570 3490 c0 -5 5 -10 10 -10 6 0 10 5 10 10 0 6 -4 10 -10 10 -5 0
-10 -4 -10 -10z"/>
<path d="M5525 3121 c-3 -5 -1 -12 5 -16 5 -3 10 1 10 9 0 18 -6 21 -15 7z"/>
<path d="M5497 2883 c-11 -10 -8 -43 3 -43 6 0 10 11 10 25 0 26 -2 29 -13 18z"/>
<path d="M5462 2680 c0 -14 2 -19 5 -12 2 6 2 18 0 25 -3 6 -5 1 -5 -13z"/>
<path d="M3943 2595 c0 -27 2 -38 4 -22 2 15 2 37 0 50 -2 12 -4 0 -4 -28z"/>
<path d="M5411 2474 c0 -11 3 -14 6 -6 3 7 2 16 -1 19 -3 4 -6 -2 -5 -13z"/>
<path d="M6256 2272 c-10 -41 3 -137 15 -125 12 12 13 89 1 128 l-9 30 -7 -33z"/>
<path d="M6170 2183 c0 -34 5 -74 12 -90 8 -19 12 -144 13 -408 2 -241 6 -395
13 -420 15 -53 17 -124 8 -273 -8 -118 -18 -155 -29 -110 -10 36 -21 11 -18
-39 3 -61 9 -69 31 -41 39 51 75 322 66 511 -6 110 -10 132 -27 122 -5 -4 -9
0 -9 9 0 8 5 16 12 18 6 2 8 9 5 16 -4 6 -9 118 -11 249 -3 198 -7 254 -24
333 -12 52 -22 109 -22 125 0 17 -5 37 -10 45 -7 11 -10 -3 -10 -47z"/>
<path d="M6355 2118 c-3 -29 -4 -80 -1 -113 2 -33 5 -67 5 -75 1 -13 2 -13 11
0 12 19 13 227 1 235 -5 3 -12 -18 -16 -47z"/>
<path d="M4258 2012 c-3 -11 -2 -24 2 -29 5 -4 10 -19 13 -33 3 -17 5 -12 5
15 2 47 -12 78 -20 47z"/>
<path d="M5375 1910 c-13 -21 11 -33 42 -22 22 8 24 11 8 11 -12 1 -26 6 -32
12 -8 8 -13 7 -18 -1z"/>
<path d="M6601 1904 c0 -11 3 -14 6 -6 3 7 2 16 -1 19 -3 4 -6 -2 -5 -13z"/>
<path d="M4680 1561 c0 -6 4 -13 10 -16 6 -3 7 1 4 9 -7 18 -14 21 -14 7z"/>
<path d="M4701 1503 c-1 -17 4 -35 9 -38 11 -7 11 9 0 45 -8 24 -8 24 -9 -7z"/>
<path d="M6146 1198 c-10 -39 -6 -181 8 -238 l13 -55 7 148 c4 81 4 152 1 157
-10 17 -22 11 -29 -12z"/>
<path d="M6071 1164 c0 -11 3 -14 6 -6 3 7 2 16 -1 19 -3 4 -6 -2 -5 -13z"/>
<path d="M5286 1055 c3 -55 9 -174 13 -265 6 -111 13 -177 24 -201 18 -44 44
-65 33 -28 -20 73 -36 184 -37 259 -1 99 -14 238 -28 295 -8 31 -9 18 -5 -60z"/>
<path d="M5909 1076 c-9 -18 -19 -25 -35 -24 -13 1 -24 8 -24 14 0 7 -8 10
-19 7 -28 -7 -36 -140 -16 -258 9 -49 20 -94 24 -98 4 -4 11 14 15 40 11 86
57 257 77 289 17 28 17 33 4 44 -12 10 -17 8 -26 -14z"/>
<path d="M5716 958 c-12 -116 -15 -203 -7 -176 5 14 12 64 16 110 3 45 9 91
11 101 3 9 1 17 -5 17 -5 0 -12 -24 -15 -52z"/>
<path d="M5200 833 c0 -24 2 -43 4 -43 8 0 12 60 4 72 -4 8 -8 -4 -8 -29z"/>
<path d="M5201 724 c0 -11 3 -14 6 -6 3 7 2 16 -1 19 -3 4 -6 -2 -5 -13z"/>
<path d="M5557 695 c-4 -22 -13 -66 -19 -97 -6 -32 -14 -55 -19 -52 -10 6 -42
-23 -57 -52 -9 -17 -8 -36 3 -78 10 -37 15 -106 15 -199 0 -78 3 -159 6 -180
7 -41 31 -50 39 -14 9 42 25 240 25 310 0 39 5 98 10 131 13 73 10 296 -3 231z"/>
<path d="M4944 594 c-7 -58 -2 -150 10 -161 3 -4 20 9 36 27 28 32 32 63 11
80 -9 7 -31 74 -31 93 0 9 -4 17 -9 17 -5 0 -13 -25 -17 -56z"/>
</g>
</svg>
